<?xml version="1.0" encoding="utf-8"?>
<!-- Generator: Adobe Illustrator 20.1.0, SVG Export Plug-In . SVG Version: 6.00 Build 0)  -->
<svg version="1.1" id="Layer_1" xmlns="http://www.w3.org/2000/svg" xmlns:xlink="http://www.w3.org/1999/xlink" x="0px" y="0px"
	 viewBox="0 0 841.9 595.3" style="enable-background:new 0 0 841.9 595.3;" xml:space="preserve">
<style type="text/css">
	.st0{fill:#FFFFFF;}
	.st1{fill:none;}
</style>
<g>
	<path class="st0" d="M285.8,148.7c-47.5-44.1-124.6-44.1-172.2,0C70.8,188.5,66,263.3,102.4,308.3l21,28.1V226.5
		c0-0.6,0-1.1,0.1-1.7c1.9-40.5,35.3-72.7,76.3-72.7c42.2,0,76.4,34.2,76.4,76.4s-34.2,76.4-76.4,76.4c-16.1,0-31.1-5-43.4-13.5
		v89.3l43.4,58.1l97.4-130.5C333.5,263.3,328.6,188.5,285.8,148.7z"/>
	<circle class="st0" cx="199.7" cy="228.5" r="43.4"/>
</g>
<g>
	<path class="st0" d="M370.8,213.7h24.4c4.5,0,8.4,0.6,11.8,1.8c3.4,1.2,6.5,3.2,9.3,6.2c2.8,3,4.7,6.5,5.7,10.5
		c1.1,4,1.6,9.4,1.6,16.2c0,5-0.3,9.3-0.9,12.8c-0.6,3.6-1.8,6.9-3.8,10c-2.2,3.7-5.2,6.6-8.9,8.7c-3.7,2.1-8.6,3.1-14.7,3.1H387
		v44.4h-16.3V213.7z M387,267.6h7.8c3.3,0,5.8-0.5,7.7-1.4c1.8-1,3.1-2.3,4-3.9c0.8-1.6,1.4-3.6,1.5-6c0.2-2.3,0.2-4.9,0.2-7.8
		c0-2.7-0.1-5.2-0.2-7.6c-0.2-2.4-0.6-4.5-1.4-6.2c-0.8-1.8-2-3.1-3.8-4.1c-1.7-1-4.1-1.5-7.3-1.5H387V267.6z"/>
	<path class="st0" d="M435.1,275h48v16.3h-48V275z"/>
	<path class="st0" d="M550.5,246.4h-16.3v-3.7c0-3.7-0.9-6.9-2.6-9.7c-1.8-2.7-4.7-4.1-8.9-4.1c-2.2,0-4.1,0.4-5.5,1.3
		c-1.4,0.9-2.6,1.9-3.4,3.3c-0.8,1.3-1.4,2.9-1.7,4.6s-0.5,3.6-0.5,5.5c0,2.2,0.1,4.1,0.2,5.7c0.2,1.5,0.6,2.9,1.2,4
		c0.6,1.1,1.6,2.1,2.8,3c1.2,0.9,2.9,1.7,5,2.6l12.4,4.9c3.6,1.4,6.5,3,8.8,4.9c2.2,1.9,4,4,5.2,6.5c1.2,2.5,2,5.4,2.5,8.6
		c0.4,3.2,0.6,6.9,0.6,11.1c0,4.8-0.5,9.2-1.4,13.3c-1,4.1-2.5,7.6-4.7,10.5c-2.2,2.9-5.1,5.2-8.7,6.9c-3.6,1.7-8,2.6-13.2,2.6
		c-3.9,0-7.6-0.7-11-2.1c-3.4-1.4-6.3-3.3-8.8-5.7c-2.4-2.4-4.4-5.2-5.8-8.5c-1.4-3.3-2.2-6.9-2.2-10.7v-6.1h16.3v5.1
		c0,3,0.9,5.7,2.6,8.1c1.8,2.4,4.7,3.6,8.9,3.6c2.8,0,4.9-0.4,6.5-1.2c1.5-0.8,2.7-1.9,3.5-3.4c0.8-1.4,1.3-3.2,1.5-5.3
		c0.2-2.1,0.3-4.5,0.3-7c0-3-0.1-5.4-0.3-7.3c-0.2-1.9-0.7-3.5-1.4-4.6c-0.7-1.2-1.7-2.1-2.9-2.9c-1.2-0.7-2.8-1.5-4.9-2.4
		l-11.6-4.8c-7-2.9-11.7-6.7-14.1-11.4c-2.4-4.7-3.6-10.7-3.6-17.8c0-4.3,0.6-8.3,1.8-12.1c1.2-3.8,2.9-7.1,5.2-9.9
		c2.3-2.8,5.2-5,8.7-6.6c3.5-1.6,7.6-2.5,12.3-2.5c4,0,7.7,0.7,11.1,2.2c3.4,1.5,6.2,3.5,8.6,5.9c2.4,2.4,4.2,5.2,5.5,8.2
		c1.3,3,1.9,6.1,1.9,9.3V246.4z"/>
	<path class="st0" d="M576.5,293v11c0,2.6,0.7,4.5,2.2,5.9c1.4,1.4,3.4,2.1,5.8,2.1c3.1,0,5.1-0.9,6.1-2.7c1-1.8,1.6-3.6,1.8-5.4
		h16.3c0,3.4-0.6,6.6-1.7,9.6c-1.1,3-2.7,5.5-4.9,7.7c-2.1,2.2-4.7,4-7.7,5.3c-3,1.3-6.3,1.9-10.1,1.9c-5,0-9.3-1.1-12.9-3.2
		c-3.6-2.1-6.4-4.9-8.3-8.5c-1.2-2.1-2-4.6-2.4-7.3c-0.4-2.8-0.6-5.8-0.6-9.1v-26.6c0-3.3,0.2-6.3,0.6-9.1c0.4-2.8,1.2-5.2,2.4-7.3
		c1.9-3.5,4.7-6.3,8.3-8.5c3.6-2.1,7.9-3.2,12.9-3.2c3.7,0,7.1,0.6,10.1,1.9c3,1.3,5.6,3.1,7.7,5.3c2.1,2.3,3.7,5,4.8,8.1
		c1.1,3.1,1.7,6.4,1.7,9.9V293H576.5z M576.5,280.2h16V271c0-3.1-0.7-5.4-2.2-6.9c-1.4-1.5-3.4-2.3-5.8-2.3c-2.4,0-4.4,0.8-5.8,2.3
		c-1.4,1.5-2.2,3.9-2.2,6.9V280.2z"/>
	<path class="st0" d="M620.7,246.4h16.3v7.8h0.3c1.7-2.6,3.8-4.7,6.1-6.3c2.4-1.6,5.5-2.5,9.2-2.5c2,0,4,0.3,6.1,1
		c2,0.7,3.8,1.8,5.4,3.4c1.6,1.6,2.9,3.6,3.8,6.1c1,2.5,1.4,5.6,1.4,9.2v62.1h-16.3v-56c0-3-0.7-5.3-2.1-7c-1.4-1.7-3.4-2.6-5.9-2.6
		c-3.1,0-5.2,1-6.4,2.9c-1.2,1.9-1.8,4.7-1.8,8.3v54.4h-16.3V246.4z"/>
	<path class="st0" d="M712.3,269.1c-0.1-2.8-1-4.8-2.6-6.2c-1.7-1.4-3.5-2.1-5.7-2.1c-2.6,0-4.5,0.8-5.9,2.5
		c-1.4,1.7-2.1,3.5-2.1,5.7c0,1.5,0.4,3,1.1,4.4c0.7,1.4,2.7,2.7,5.7,3.9l9.6,3.8c6.1,2.3,10.2,5.5,12.5,9.6c2.3,4,3.4,8.5,3.4,13.2
		c0,3.4-0.6,6.6-1.8,9.5c-1.2,2.9-2.9,5.5-5,7.7c-2.1,2.2-4.7,4-7.7,5.3c-3,1.3-6.2,1.9-9.7,1.9c-3.2,0-6.2-0.5-9.1-1.6
		c-2.9-1.1-5.4-2.6-7.6-4.6c-2.2-2-4-4.5-5.3-7.6c-1.4-3-2.1-6.6-2.2-10.6h15.3c0.3,2.2,1.1,4.3,2.3,6.2c1.2,1.9,3.4,2.9,6.5,2.9
		c2.3,0,4.4-0.8,6.3-2.3c1.9-1.5,2.8-3.7,2.8-6.5c0-2.2-0.6-4.1-1.8-5.7c-1.2-1.6-3.3-3-6.4-4.1l-7.8-2.9c-5.1-1.9-9.1-4.8-12-8.5
		c-2.9-3.8-4.4-8.4-4.4-13.8c0-3.4,0.6-6.6,1.9-9.5c1.3-2.9,3-5.4,5.2-7.5c2.2-2.1,4.7-3.7,7.6-4.9c2.9-1.2,6-1.8,9.3-1.8
		c3.3,0,6.4,0.6,9.2,1.8c2.8,1.2,5.2,2.9,7.3,4.9c2,2.1,3.6,4.6,4.8,7.5c1.2,2.9,1.8,6,1.8,9.3H712.3z"/>
	<path class="st0" d="M753.8,293v11c0,2.6,0.7,4.5,2.2,5.9c1.4,1.4,3.4,2.1,5.8,2.1c3.1,0,5.1-0.9,6.1-2.7c1-1.8,1.6-3.6,1.8-5.4
		H786c0,3.4-0.6,6.6-1.7,9.6c-1.1,3-2.7,5.5-4.9,7.7c-2.1,2.2-4.7,4-7.7,5.3c-3,1.3-6.3,1.9-10.1,1.9c-5,0-9.3-1.1-12.9-3.2
		c-3.6-2.1-6.4-4.9-8.3-8.5c-1.2-2.1-2-4.6-2.4-7.3c-0.4-2.8-0.6-5.8-0.6-9.1v-26.6c0-3.3,0.2-6.3,0.6-9.1c0.4-2.8,1.2-5.2,2.4-7.3
		c1.9-3.5,4.7-6.3,8.3-8.5c3.6-2.1,7.9-3.2,12.9-3.2c3.7,0,7.1,0.6,10.1,1.9c3,1.3,5.6,3.1,7.7,5.3c2.1,2.3,3.7,5,4.8,8.1
		c1.1,3.1,1.7,6.4,1.7,9.9V293H753.8z M753.8,280.2h16V271c0-3.1-0.7-5.4-2.2-6.9c-1.4-1.5-3.4-2.3-5.8-2.3c-2.4,0-4.4,0.8-5.8,2.3
		c-1.4,1.5-2.2,3.9-2.2,6.9V280.2z"/>
</g>
</svg>
